<svg id="visual" viewBox="0 0 960 540" width="960" height="540" xmlns="http://www.w3.org/2000/svg" xmlns:xlink="http://www.w3.org/1999/xlink" version="1.1"><path d="M0 293L26.7 311.5C53.3 330 106.7 367 160 384.3C213.3 401.7 266.7 399.3 320 383.3C373.3 367.3 426.7 337.7 480 338.8C533.3 340 586.7 372 640 373.3C693.3 374.7 746.7 345.3 800 335.3C853.3 325.3 906.7 334.7 933.3 339.3L960 344L960 541L933.3 541C906.7 541 853.3 541 800 541C746.7 541 693.3 541 640 541C586.7 541 533.3 541 480 541C426.7 541 373.3 541 320 541C266.7 541 213.3 541 160 541C106.7 541 53.3 541 26.7 541L0 541Z" fill="#946cdd"></path><path d="M0 477L26.7 477.3C53.3 477.7 106.7 478.3 160 478.2C213.3 478 266.7 477 320 457.2C373.3 437.3 426.7 398.7 480 383C533.3 367.3 586.7 374.7 640 385C693.3 395.3 746.7 408.7 800 408.5C853.3 408.3 906.7 394.7 933.3 387.8L960 381L960 541L933.3 541C906.7 541 853.3 541 800 541C746.7 541 693.3 541 640 541C586.7 541 533.3 541 480 541C426.7 541 373.3 541 320 541C266.7 541 213.3 541 160 541C106.7 541 53.3 541 26.7 541L0 541Z" fill="#b395e7"></path><path d="M0 474L26.7 480.8C53.3 487.7 106.7 501.3 160 496.3C213.3 491.3 266.7 467.7 320 462C373.3 456.3 426.7 468.7 480 476.8C533.3 485 586.7 489 640 478.7C693.3 468.3 746.7 443.7 800 432.3C853.3 421 906.7 423 933.3 424L960 425L960 541L933.3 541C906.7 541 853.3 541 800 541C746.7 541 693.3 541 640 541C586.7 541 533.3 541 480 541C426.7 541 373.3 541 320 541C266.7 541 213.3 541 160 541C106.7 541 53.3 541 26.7 541L0 541Z" fill="#d1beef"></path></svg>